<?xml version="1.0" standalone="no"?>
<!DOCTYPE svg PUBLIC "-//W3C//DTD SVG 20010904//EN"
 "http://www.w3.org/TR/2001/REC-SVG-20010904/DTD/svg10.dtd">
<svg version="1.0" xmlns="http://www.w3.org/2000/svg"
 width="600.000000pt" height="600.000000pt" viewBox="0 0 600.000000 600.000000"
 preserveAspectRatio="xMidYMid meet">
<g transform="translate(0.000000,600.000000) scale(0.100000,-0.100000)"
fill="#000000" stroke="none">
<path d="M2983 5163 c-7 -3 -13 -11 -13 -19 0 -8 -4 -22 -9 -32 -5 -9 -19 -49
-32 -89 -13 -39 -27 -69 -31 -67 -4 3 -5 -1 -3 -9 3 -7 -6 -30 -20 -51 -14
-20 -23 -42 -19 -47 3 -6 -3 -20 -14 -32 -10 -12 -22 -34 -26 -49 -3 -16 -11
-28 -16 -28 -6 0 -10 -6 -10 -14 0 -8 -3 -16 -7 -18 -5 -1 -19 -23 -32 -48
-14 -25 -35 -56 -47 -69 -13 -14 -21 -28 -18 -33 3 -4 0 -8 -5 -8 -6 0 -11 -4
-11 -10 0 -9 -19 -35 -47 -65 -7 -8 -13 -18 -13 -23 0 -5 -11 -21 -25 -36 -13
-14 -21 -26 -17 -26 4 0 0 -6 -8 -13 -8 -7 -19 -20 -25 -28 -31 -49 -69 -105
-74 -109 -3 -3 -13 -19 -22 -35 -27 -51 -44 -80 -51 -85 -4 -3 -16 -28 -28
-55 -19 -47 -42 -98 -61 -137 -19 -38 -59 -199 -68 -273 -8 -71 -6 -230 4
-262 3 -7 9 -13 14 -13 5 0 5 15 0 38 -5 20 -9 77 -9 125 0 243 109 504 355
847 185 257 270 400 336 565 30 75 71 207 66 210 -1 1 -8 0 -14 -2z"/>
<path d="M3010 5133 c0 -67 77 -256 168 -413 53 -91 165 -263 275 -420 201
-286 307 -522 307 -685 0 -47 -4 -56 -42 -97 -24 -25 -62 -55 -85 -67 -41 -20
-52 -34 -35 -44 4 -2 1 -2 -5 -1 -7 2 -13 -1 -13 -6 0 -9 -39 -25 -54 -22 -4
2 -13 -2 -20 -7 -14 -12 -129 -17 -176 -8 -19 4 -44 9 -55 11 -11 1 -27 5 -35
9 -8 3 -78 25 -155 50 -238 76 -339 92 -449 72 -38 -8 -38 -7 -25 16 7 13 14
57 16 97 3 69 2 73 -22 84 -19 8 -28 8 -40 -2 -8 -7 -18 -10 -21 -8 -3 3 34
43 82 89 48 46 106 104 130 129 24 25 47 48 51 52 77 74 155 148 167 157 20
16 62 -15 196 -145 52 -51 123 -118 157 -150 297 -283 284 -269 260 -274 -19
-5 -22 -13 -25 -64 -2 -42 0 -56 9 -51 7 5 10 25 7 57 l-5 49 38 -6 c22 -3 39
-3 39 1 0 7 -58 64 -329 323 -96 91 -184 176 -195 187 -43 44 -127 114 -137
114 -5 0 -82 -71 -170 -157 -88 -87 -208 -204 -266 -261 -58 -56 -104 -104
-101 -107 2 -2 26 7 53 20 26 14 54 25 61 25 7 0 14 5 16 11 2 5 10 8 18 4 12
-4 14 -21 10 -87 l-5 -81 -38 -4 c-21 -1 -55 -10 -75 -19 -96 -43 -148 -69
-160 -81 -7 -7 -18 -13 -23 -13 -15 0 -49 -63 -49 -91 0 -15 6 -31 13 -37 13
-11 58 -5 67 8 12 18 147 50 211 50 64 0 163 -19 192 -37 6 -4 17 -8 24 -9 17
-3 236 -106 248 -117 6 -7 3 -7 -10 -2 -11 4 -28 8 -37 9 -9 0 -14 4 -12 8 5
7 -2 9 -21 8 -9 -1 -69 34 -77 44 -3 5 -20 9 -36 8 -18 0 -33 5 -36 14 -3 8
-11 14 -18 14 -9 0 -9 -3 2 -11 16 -12 14 -11 -60 17 -41 15 -297 14 -308 -1
-4 -6 -13 -11 -21 -13 -8 -2 -29 -9 -46 -16 -43 -18 -40 -54 9 -129 41 -61
162 -178 210 -204 29 -15 43 -25 75 -54 9 -8 23 -13 31 -11 7 3 10 0 6 -6 -4
-6 3 -16 15 -23 16 -8 23 -8 29 1 5 8 9 9 11 2 15 -42 563 -31 591 12 6 8 8 7
8 -1 0 -7 6 -10 14 -7 8 3 12 12 10 19 -4 8 5 15 25 20 16 3 35 13 42 22 7 8
36 30 64 47 66 43 145 115 145 132 0 8 6 14 14 14 7 0 16 8 20 18 14 39 53
102 60 95 4 -4 4 1 0 11 -5 13 -4 17 4 12 8 -5 10 -2 6 9 -8 19 -7 20 -74 -78
-241 -353 -742 -451 -1090 -214 -96 66 -240 230 -240 273 0 26 110 56 215 60
129 4 200 -15 405 -106 181 -80 235 -97 333 -106 85 -7 179 12 265 54 71 34
176 139 207 207 33 72 51 185 35 215 -10 18 -9 24 1 32 10 7 11 11 2 14 -7 3
-10 11 -7 17 10 27 -27 213 -55 272 -32 71 -61 136 -61 141 0 3 -5 10 -10 17
-21 25 -80 130 -80 143 0 8 -4 14 -8 14 -4 0 -16 15 -27 33 -10 17 -25 38 -32
45 -7 7 -13 20 -13 28 0 8 -4 13 -9 10 -5 -3 -11 2 -15 12 -3 9 -26 44 -51 77
-25 33 -55 80 -67 105 -12 25 -35 58 -50 73 -15 16 -28 34 -28 41 0 7 -11 26
-24 41 -14 16 -22 33 -19 38 3 6 1 7 -4 4 -6 -4 -14 0 -17 9 -3 9 -2 12 4 9 6
-4 -1 10 -14 30 -14 19 -35 57 -47 83 -12 26 -25 49 -28 52 -7 6 -23 48 -67
174 -38 111 -44 122 -44 79z m766 -1605 c4 -6 3 -8 -3 -5 -6 4 -12 -18 -15
-57 -10 -123 -85 -235 -195 -294 -80 -42 -128 -53 -232 -53 -131 0 -171 12
-406 126 -71 34 -158 72 -193 84 -83 28 -194 37 -274 22 -64 -13 -147 -46
-160 -65 -8 -12 -13 -8 -22 20 -5 17 4 28 50 62 31 23 61 42 66 42 6 0 8 7 5
15 -4 8 -2 17 4 20 5 4 8 2 7 -3 -4 -15 8 -14 50 3 59 26 167 45 247 45 97 0
198 -20 325 -65 232 -82 258 -88 370 -89 86 0 115 4 158 22 87 36 159 97 185
155 13 29 22 34 33 15z m-1219 -34 c-3 -3 -12 -4 -19 -1 -8 3 -5 6 6 6 11 1
17 -2 13 -5z m598 -382 c-3 -3 -11 0 -18 7 -9 10 -8 11 6 5 10 -3 15 -9 12
-12z"/>
<path d="M2898 3321 c40 -9 70 -20 66 -24 -5 -5 0 -5 10 -1 11 4 17 3 14 -2
-4 -5 4 -10 15 -11 12 0 45 -12 72 -24 28 -13 56 -22 64 -20 7 1 11 -1 8 -6
-3 -4 5 -9 16 -9 12 -1 47 -9 77 -18 75 -23 252 -24 300 -2 19 9 26 13 15 10
-11 -4 -64 -9 -117 -12 -116 -5 -202 11 -345 67 -123 48 -203 71 -240 70 -16
-1 3 -8 45 -18z"/>
<path d="M2992 4965 c0 -16 2 -22 5 -12 2 9 2 23 0 30 -3 6 -5 -1 -5 -18z"/>
<path d="M2972 4883 c-25 -91 -110 -282 -170 -383 -12 -19 -26 -43 -33 -54 -8
-14 -8 -17 1 -14 7 2 25 27 40 56 15 28 30 49 34 45 3 -3 6 1 6 11 0 24 46
107 54 99 4 -4 4 0 1 8 -7 18 29 102 39 92 4 -4 4 1 0 11 -5 14 -4 17 4 12 8
-5 12 1 12 18 0 13 5 37 11 53 12 30 23 93 17 93 -2 0 -10 -21 -16 -47z"/>
<path d="M2925 4869 c-4 -6 -5 -12 -2 -15 2 -3 7 2 10 11 7 17 1 20 -8 4z"/>
<path d="M2895 4801 c-3 -5 -1 -12 5 -16 5 -3 10 1 10 9 0 18 -6 21 -15 7z"/>
<path d="M2846 4695 c-21 -41 -44 -79 -53 -83 -8 -5 -14 -11 -13 -13 4 -12
-14 -38 -23 -32 -6 3 -7 1 -3 -5 7 -12 -52 -105 -85 -134 -11 -9 -21 -21 -22
-25 -1 -4 -5 -7 -9 -6 -4 2 -5 -3 -2 -10 2 -7 -9 -27 -26 -45 -16 -18 -30 -35
-30 -37 0 -3 0 -10 0 -16 0 -5 -5 -7 -10 -4 -6 4 -10 3 -9 -2 4 -15 -24 -63
-33 -57 -5 3 -8 2 -7 -3 3 -18 -2 -30 -21 -51 -11 -12 -20 -25 -20 -29 0 -19
-12 -43 -21 -43 -6 0 -8 -4 -4 -9 3 -5 -2 -17 -11 -25 -15 -15 -21 -33 -23
-64 -1 -7 -6 -10 -13 -6 -6 4 -8 3 -5 -2 3 -5 -3 -34 -13 -63 -10 -31 -20 -47
-24 -40 -3 8 -3 3 0 -10 4 -14 1 -27 -6 -31 -7 -4 -13 -26 -14 -49 0 -22 -3
-41 -6 -41 -3 0 -5 -12 -4 -27 1 -16 3 -39 4 -53 1 -14 10 20 20 75 10 55 28
127 39 160 36 102 117 255 193 368 40 59 107 158 149 220 85 124 166 267 152
267 -5 0 -26 -34 -47 -75z"/>
<path d="M2956 4621 c-22 -163 -143 -411 -285 -581 -83 -99 -114 -130 -124
-123 -6 3 -7 1 -3 -6 4 -6 2 -20 -5 -29 -29 -38 98 97 140 148 24 30 47 57 51
60 4 3 18 25 33 50 15 25 27 37 27 28 0 -9 4 -20 10 -23 7 -4 7 3 0 19 -5 14
-7 27 -5 27 3 1 9 2 14 3 5 0 13 5 18 10 5 5 3 6 -4 2 -17 -9 -16 4 1 27 8 10
16 14 18 10 3 -4 3 -2 1 6 -2 7 5 28 16 46 48 83 122 329 109 367 -3 7 -8 -11
-12 -41z"/>
<path d="M2743 4405 c0 -8 4 -12 9 -9 5 3 6 10 3 15 -9 13 -12 11 -12 -6z"/>
<path d="M2921 4384 c0 -11 3 -14 6 -6 3 7 2 16 -1 19 -3 4 -6 -2 -5 -13z"/>
<path d="M2721 4369 c-1 -17 -28 -34 -46 -30 -5 1 -5 -3 2 -10 9 -9 8 -20 -5
-48 -9 -20 -20 -38 -23 -41 -4 -3 -10 -16 -14 -30 -4 -14 -4 -22 0 -18 19 18
68 119 61 126 -3 2 4 12 16 21 11 10 18 24 15 32 -4 11 -6 10 -6 -2z"/>
<path d="M2954 4298 c-49 -78 -157 -196 -362 -391 -33 -33 -66 -56 -72 -52 -6
3 -9 2 -8 -2 2 -5 -24 -39 -57 -76 -62 -68 -103 -127 -88 -127 5 0 17 14 27
31 17 29 19 29 32 12 14 -17 14 -16 5 4 -10 20 1 44 12 26 2 -5 3 -3 1 4 -1 6
4 19 11 30 8 10 15 14 15 9 0 -5 12 7 28 26 38 48 118 120 150 135 15 7 19 11
9 8 -9 -2 19 31 65 75 45 43 86 76 91 73 6 -3 7 -1 3 5 -9 14 53 84 67 75 6
-3 7 -1 3 5 -4 7 6 26 24 44 17 18 38 49 47 68 9 19 22 38 27 42 6 4 8 10 4
13 -4 4 -19 -13 -34 -37z"/>
<path d="M2726 4228 c3 -5 10 -6 15 -3 13 9 11 12 -6 12 -8 0 -12 -4 -9 -9z"/>
<path d="M2736 4193 c-6 -14 -5 -15 5 -6 7 7 10 15 7 18 -3 3 -9 -2 -12 -12z"/>
<path d="M2596 4150 c-10 -17 -16 -33 -13 -36 6 -7 39 45 35 57 -2 5 -12 -4
-22 -21z"/>
<path d="M2516 4107 c3 -10 9 -15 12 -12 3 3 0 11 -7 18 -10 9 -11 8 -5 -6z"/>
<path d="M2888 3843 c-11 -14 -16 -44 -16 -120 -1 -56 3 -105 8 -108 5 -3 8
19 7 50 l-3 55 54 0 c45 0 53 -3 51 -17 -1 -10 -1 -35 0 -55 1 -35 3 -37 44
-43 23 -4 53 -2 67 4 21 8 15 10 -35 10 l-60 1 3 50 4 50 42 0 c54 0 66 13 66
69 0 33 -3 42 -10 31 -5 -8 -7 -29 -4 -47 l5 -33 -50 0 -51 0 0 50 0 50 51 0
c32 0 48 4 44 10 -8 13 -85 11 -102 -3 -7 -5 -13 -31 -13 -58 l0 -49 -50 0
-50 0 0 50 0 50 50 0 c61 0 67 16 7 18 -31 2 -48 -3 -59 -15z"/>
<path d="M3113 3675 c0 -27 2 -38 4 -22 2 15 2 37 0 50 -2 12 -4 0 -4 -28z"/>
<path d="M2900 3611 c0 -12 36 -20 60 -14 34 9 22 23 -20 23 -22 0 -40 -4 -40
-9z"/>
<path d="M2410 3130 c-13 -8 -13 -10 2 -10 9 0 20 5 23 10 8 13 -5 13 -25 0z"/>
<path d="M2459 3131 c8 -5 19 -7 25 -5 7 3 43 0 81 -7 39 -6 81 -10 95 -10 20
1 22 -1 10 -10 -12 -8 -11 -9 7 -4 12 3 24 1 28 -5 3 -5 17 -10 31 -10 13 0
24 -4 24 -8 0 -5 28 -16 63 -27 34 -10 75 -24 91 -32 15 -8 40 -17 53 -19 14
-3 44 -11 66 -19 23 -8 70 -18 104 -21 34 -4 60 -10 58 -14 -3 -5 4 -6 15 -3
31 8 19 13 -56 24 -74 10 -179 43 -343 108 -58 23 -138 48 -177 56 -81 17
-198 20 -175 6z"/>
<path d="M3305 2950 c-8 -13 5 -13 25 0 13 8 13 10 -2 10 -9 0 -20 -4 -23 -10z"/>
<path d="M3160 2910 c0 -5 10 -10 23 -10 18 0 19 2 7 10 -19 13 -30 13 -30 0z"/>
<path d="M2628 2763 c7 -3 16 -2 19 1 4 3 -2 6 -13 5 -11 0 -14 -3 -6 -6z"/>
<path d="M2681 2760 c36 -10 707 -11 714 0 3 5 -159 9 -367 9 -205 0 -361 -4
-347 -9z"/>
<path d="M3468 2763 c7 -3 16 -2 19 1 4 3 -2 6 -13 5 -11 0 -14 -3 -6 -6z"/>
<path d="M3136 2519 c-11 -16 -15 -61 -16 -195 0 -107 3 -174 9 -174 15 0 20
70 18 222 l-2 138 38 0 38 0 -2 -72 -2 -73 77 -3 78 -3 -4 76 -3 75 37 0 38 0
0 -180 0 -180 -37 0 -38 0 0 71 0 71 -74 0 -75 0 3 -63 c1 -35 5 -67 7 -71 3
-5 -15 -8 -40 -8 -25 0 -47 -4 -51 -9 -8 -13 55 -18 83 -7 19 8 22 16 22 72 0
69 4 73 68 66 32 -4 32 -5 32 -57 0 -64 21 -92 65 -87 60 7 64 21 59 208 -3
101 -9 173 -15 181 -6 7 -29 13 -49 13 -35 0 -39 -3 -50 -35 -6 -19 -11 -47
-10 -62 4 -53 3 -54 -50 -51 l-50 3 0 61 c0 67 -7 78 -57 87 -26 5 -35 2 -47
-14z"/>
<path d="M3604 2522 c-44 -24 -89 -64 -104 -92 -7 -13 -16 -50 -20 -83 -6 -53
-4 -66 18 -106 13 -25 30 -50 38 -54 8 -5 12 -13 8 -18 -3 -5 -2 -8 3 -7 4 1
27 -8 50 -20 65 -34 168 -26 214 17 12 11 26 21 30 21 4 0 19 24 32 53 26 55
30 126 9 178 -15 37 -89 109 -112 109 -11 0 -20 4 -20 9 0 16 -114 11 -146 -7z
m193 -41 c48 -35 73 -91 73 -165 0 -156 -201 -233 -314 -120 -83 83 -67 224
33 291 27 18 48 23 101 23 58 0 72 -4 107 -29z"/>
<path d="M3633 2434 c-64 -32 -78 -136 -25 -189 30 -31 61 -39 106 -31 97 18
119 164 34 216 -39 24 -72 25 -115 4z m124 -52 c40 -60 12 -140 -51 -143 -11
-1 -28 -2 -36 -3 -8 0 -27 11 -42 26 -37 37 -38 91 -3 132 14 16 25 25 25 21
0 -5 5 -4 11 2 19 19 72 -1 96 -35z"/>
<path d="M3580 2226 c0 -2 8 -10 18 -17 15 -13 16 -12 3 4 -13 16 -21 21 -21
13z"/>
<path d="M3953 2528 c-18 -4 -35 -12 -38 -18 -3 -5 -6 -62 -6 -127 -1 -72 -6
-124 -13 -132 -6 -8 -6 -12 -1 -9 7 4 11 -11 13 -39 2 -60 21 -80 67 -75 22 3
35 10 35 19 0 8 5 11 11 8 7 -5 10 9 9 41 -3 76 -2 78 15 60 8 -8 15 -17 15
-21 0 -16 32 -35 59 -35 30 0 47 13 83 63 11 15 13 9 10 -40 -4 -67 19 -104
62 -99 54 6 56 14 56 206 0 198 -1 201 -66 203 -25 1 -41 -5 -51 -18 -8 -11
-19 -19 -24 -17 -5 1 -8 -1 -7 -5 3 -13 -50 -123 -60 -123 -5 0 -19 22 -32 50
-13 27 -28 46 -33 43 -6 -3 -7 -1 -3 5 8 13 -29 56 -54 64 -8 3 -29 1 -47 -4z
m78 -51 c47 -96 85 -166 89 -166 3 0 28 43 56 97 51 97 52 97 92 100 l41 3 3
-180 3 -181 -37 0 -37 0 -3 120 -3 120 -45 -85 c-39 -73 -48 -85 -71 -85 -23
0 -32 11 -70 87 l-44 87 -3 -122 -3 -122 -37 0 -37 0 3 180 3 180 42 0 c37 -1
44 -4 58 -33z"/>
<path d="M4211 2407 c-13 -21 -12 -21 5 -5 10 10 16 20 13 22 -3 3 -11 -5 -18
-17z"/>
<path d="M4483 2530 c-64 -3 -107 -10 -115 -18 -17 -17 -12 -363 5 -374 7 -5
68 -7 137 -6 120 3 125 4 136 27 11 22 12 22 23 5 6 -11 11 -15 11 -11 0 5 13
-1 28 -11 58 -42 207 -12 232 47 17 42 21 91 9 114 -17 31 -61 65 -94 73 -62
14 -93 55 -35 46 17 -2 30 -8 30 -13 0 -17 50 -9 70 11 11 11 17 20 13 20 -5
0 -2 4 6 9 11 7 10 13 -5 34 -30 39 -73 58 -132 56 -28 -1 -52 -6 -52 -11 0
-4 -3 -7 -7 -6 -16 5 -53 -24 -67 -50 -20 -40 -30 -76 -19 -69 6 4 8 -3 6 -16
-5 -30 42 -81 90 -98 20 -7 37 -16 37 -20 0 -4 9 -5 20 -2 11 3 20 0 20 -6 0
-6 0 -14 1 -18 2 -12 -57 -3 -96 13 -31 13 -34 12 -59 -13 -21 -21 -29 -23
-40 -13 -8 6 -28 11 -43 10 -73 -5 -113 0 -113 15 0 11 12 15 48 16 26 1 51 1
56 0 5 -1 16 5 26 14 35 32 9 106 -35 99 -11 -2 -37 -1 -58 3 -61 9 -38 28 35
28 80 0 107 18 100 66 -2 17 -11 33 -18 36 -8 3 -12 9 -9 13 2 4 -5 7 -18 6
-12 0 -68 -3 -124 -6z m362 -19 c17 -1 40 -9 53 -19 21 -16 22 -20 10 -49
l-14 -32 -29 19 c-35 23 -74 26 -99 7 -25 -19 -13 -53 22 -62 59 -15 120 -48
133 -71 62 -117 -92 -210 -218 -132 -18 11 -33 23 -33 27 0 15 43 53 49 43 9
-15 57 -32 90 -32 32 0 54 21 49 46 -3 19 -12 24 -90 54 -68 26 -78 37 -85 87
-4 29 0 44 17 66 23 29 75 56 100 51 8 -1 29 -3 45 -3z m-215 -37 l0 -35 -86
2 -87 2 -1 -43 -1 -43 77 2 76 2 0 -33 0 -33 -76 0 -75 0 0 -40 0 -40 86 0 87
1 0 -33 0 -33 -125 0 -125 0 0 180 0 180 125 0 125 0 0 -36z"/>
<path d="M995 2520 c-3 -5 1 -10 9 -10 9 0 16 5 16 10 0 6 -4 10 -9 10 -6 0
-13 -4 -16 -10z"/>
<path d="M1302 2518 c-13 -5 -12 -7 8 -8 20 -2 142 -2 173 0 4 0 7 3 7 8 0 9
-165 9 -188 0z"/>
<path d="M1655 2517 c-104 -61 -142 -176 -94 -278 24 -50 65 -89 92 -89 10 0
16 -4 13 -9 -3 -4 29 -8 72 -8 l77 -1 -60 7 c-99 11 -159 47 -184 109 -17 40
-17 132 -1 162 20 37 63 82 90 93 51 21 180 11 180 -14 0 -5 7 -9 15 -9 8 0
15 -5 15 -12 0 -6 3 -8 7 -5 7 8 -23 39 -53 54 -27 15 -145 15 -169 0z"/>
<path d="M2080 2520 c8 -5 24 -10 35 -10 17 0 17 2 5 10 -8 5 -24 10 -35 10
-17 0 -17 -2 -5 -10z"/>
<path d="M2393 2517 c-35 -13 -62 -39 -93 -89 -44 -73 -14 -218 54 -258 17
-11 37 -24 44 -30 7 -7 36 -13 65 -14 60 -4 121 21 150 60 23 31 18 30 -19 -1
-16 -14 -35 -25 -41 -25 -7 0 -13 -5 -13 -11 0 -8 -21 -10 -64 -7 -81 5 -128
34 -163 103 -22 42 -25 57 -19 107 5 55 12 68 61 122 25 27 71 45 103 40 12
-2 22 1 22 6 0 13 -47 11 -87 -3z"/>
<path d="M2528 2510 c24 -11 49 -17 55 -13 7 3 9 3 5 -2 -9 -9 9 -35 24 -35 5
0 4 9 -2 20 -12 22 -46 39 -95 46 -26 4 -24 2 13 -16z"/>
<path d="M2669 2519 c-10 -6 -4 -9 19 -9 17 0 32 2 32 4 0 9 -39 13 -51 5z"/>
<path d="M2915 2520 c-17 -7 -15 -9 13 -9 17 -1 32 4 32 9 0 12 -17 12 -45 0z"/>
<path d="M2738 2513 c6 -2 9 -9 6 -15 -4 -6 -3 -13 2 -17 5 -3 22 -32 38 -63
28 -57 46 -73 46 -42 0 17 27 71 48 92 6 7 12 21 12 30 -1 14 -3 14 -12 -3 -6
-11 -14 -22 -18 -25 -11 -8 -35 -54 -32 -62 1 -5 -2 -8 -6 -8 -8 0 -49 66 -64
102 -4 10 -13 18 -20 17 -10 0 -10 -2 0 -6z"/>
<path d="M2154 2468 c6 -23 12 -34 14 -24 5 23 -6 66 -17 66 -4 0 -3 -19 3
-42z"/>
<path d="M1045 2360 l3 -145 33 1 c19 1 54 3 79 4 39 3 36 4 -25 9 l-70 6 -7
115 c-11 170 -17 175 -13 10z"/>
<path d="M1250 2333 c0 -109 4 -173 10 -173 13 0 13 310 0 330 -6 10 -10 -42
-10 -157z"/>
<path d="M2035 2463 c-16 -38 -15 -52 2 -31 12 15 26 68 18 68 -2 0 -12 -16
-20 -37z"/>
<path d="M964 2325 c0 -93 2 -133 3 -88 2 45 2 122 0 170 -1 48 -3 12 -3 -82z"/>
<path d="M2648 2474 c6 -11 26 -43 45 -71 19 -29 37 -58 40 -65 2 -7 7 -10 11
-6 6 5 -17 51 -34 68 -3 3 -15 23 -26 45 -12 21 -27 41 -34 43 -9 3 -9 -1 -2
-14z"/>
<path d="M2975 2482 c-13 -9 -34 -42 -41 -64 -4 -10 -10 -18 -14 -18 -5 0 -11
-14 -15 -30 -4 -17 -11 -28 -16 -24 -5 3 -9 -2 -9 -10 0 -9 -4 -16 -9 -16 -4
0 -8 -37 -8 -82 l0 -83 6 70 c6 56 15 83 45 135 58 98 76 130 73 130 -1 0 -6
-4 -12 -8z"/>
<path d="M1700 2444 c-18 -6 -55 -54 -41 -54 5 0 16 8 23 18 18 23 71 27 103
6 31 -20 42 -14 16 10 -19 17 -74 28 -101 20z"/>
<path d="M2423 2437 c-63 -32 -71 -148 -14 -199 20 -18 43 -28 62 -28 31 0 89
27 89 42 0 14 23 9 42 -9 17 -15 18 -15 13 0 -10 25 -44 31 -65 12 -28 -25
-94 -31 -124 -11 -37 23 -51 86 -31 130 9 18 26 39 39 45 28 16 82 8 107 -15
16 -14 19 -14 19 -2 0 17 -62 49 -93 47 -12 -1 -32 -6 -44 -12z"/>
<path d="M1344 2398 c1 -25 8 -42 14 -41 6 2 34 3 62 4 73 3 73 19 1 19 -59 0
-61 1 -61 26 l0 27 65 -6 c39 -4 65 -2 65 3 0 6 -34 10 -75 10 l-75 0 4 -42z"/>
<path d="M2180 2427 c0 -9 12 -45 26 -80 14 -34 32 -82 41 -107 16 -48 43 -93
43 -73 0 11 -11 41 -31 88 -5 11 -25 58 -44 105 -19 47 -34 77 -35 67z"/>
<path d="M2595 2414 l-30 -25 33 16 c17 8 32 20 32 25 0 14 -1 13 -35 -16z"/>
<path d="M1859 2413 c-13 -15 -12 -15 9 -4 23 12 28 21 13 21 -5 0 -15 -7 -22
-17z"/>
<path d="M2097 2410 c-17 -42 -38 -112 -34 -117 3 -2 25 -3 50 -1 l45 3 -23
48 c-13 27 -26 56 -28 65 -3 14 -5 15 -10 2z m21 -78 c3 -17 -2 -22 -18 -22
-16 0 -20 4 -16 16 3 9 6 20 6 26 0 19 25 1 28 -20z"/>
<path d="M2010 2400 c0 -5 5 -10 10 -10 6 0 10 5 10 10 0 6 -4 10 -10 10 -5 0
-10 -4 -10 -10z"/>
<path d="M1636 2367 c-12 -25 0 -87 22 -117 37 -49 152 -50 165 -1 5 19 1 21
-31 20 -24 -1 -29 -3 -14 -6 51 -10 8 -37 -51 -31 -51 4 -72 36 -80 118 -2 27
-5 31 -11 17z"/>
<path d="M1996 2353 c-4 -18 -11 -33 -16 -33 -4 0 -10 -8 -13 -17 -2 -10 -16
-49 -30 -86 -15 -37 -23 -66 -19 -63 7 4 19 29 74 157 11 26 18 53 16 60 -3 8
-8 -1 -12 -18z"/>
<path d="M1757 2348 c6 -10 120 -10 127 0 2 4 -26 7 -64 7 -37 0 -66 -3 -63
-7z"/>
<path d="M1501 2334 c0 -11 3 -14 6 -6 3 7 2 16 -1 19 -3 4 -6 -2 -5 -13z"/>
<path d="M1731 2304 c0 -11 3 -14 6 -6 3 7 2 16 -1 19 -3 4 -6 -2 -5 -13z"/>
<path d="M1901 2260 l1 -65 9 49 c4 29 4 56 -1 65 -6 11 -9 -5 -9 -49z"/>
<path d="M1340 2282 c0 -9 6 -12 16 -8 9 3 45 6 81 6 90 0 75 9 -20 13 -61 2
-77 0 -77 -11z"/>
<path d="M2758 2229 c3 -46 7 -68 13 -62 13 13 7 125 -6 130 -6 2 -9 -24 -7
-68z"/>
<path d="M1340 2237 l0 -28 71 3 c87 3 102 16 18 17 -47 0 -64 4 -75 18 -12
17 -13 16 -14 -10z"/>
<path d="M2024 2221 c-2 -2 -4 -14 -4 -26 0 -28 -18 -45 -49 -46 -23 0 -24 -1
-6 -8 24 -10 75 24 75 49 0 14 11 17 62 16 56 -1 64 -4 75 -26 11 -22 13 -22
13 -5 0 42 -16 50 -90 50 -40 0 -74 -2 -76 -4z"/>
<path d="M1220 2187 c0 -14 4 -28 8 -31 9 -5 8 41 -1 51 -4 3 -7 -5 -7 -20z"/>
<path d="M1519 2188 c-1 -13 -1 -26 0 -30 0 -5 -53 -8 -119 -8 -73 0 -120 -4
-120 -10 0 -13 190 -13 222 -1 17 6 24 18 26 40 1 17 0 31 -3 31 -3 0 -6 -10
-6 -22z"/>
<path d="M1850 2170 c-26 -14 -30 -19 -15 -19 11 0 31 8 45 19 32 25 15 25
-30 0z"/>
<path d="M972 2145 c10 -11 239 -15 233 -5 -4 6 -56 10 -122 10 -64 0 -114 -2
-111 -5z"/>
<path d="M2210 2140 c0 -5 17 -10 38 -9 33 1 34 2 12 9 -36 11 -50 11 -50 0z"/>
<path d="M2795 2140 c3 -5 12 -10 20 -10 8 0 17 5 20 10 4 6 -5 10 -20 10 -15
0 -24 -4 -20 -10z"/>
<path d="M1806 1976 c5 -13 4 -17 -3 -13 -15 10 -43 -2 -43 -18 0 -7 -7 -19
-17 -26 -15 -13 -15 -12 -5 8 14 26 15 36 3 29 -5 -4 -11 -1 -13 5 -2 6 -14 8
-31 4 -15 -4 -24 -11 -21 -16 3 -5 -2 -6 -10 -3 -9 3 -14 9 -12 13 3 4 -6 8
-20 9 -13 1 -24 -2 -24 -6 0 -5 -7 -9 -15 -9 -8 0 -15 5 -15 10 0 6 -3 7 -7 4
-3 -4 -12 -2 -18 3 -9 8 -15 5 -20 -7 -12 -28 -12 -34 3 -88 17 -60 51 -103
67 -83 11 14 45 20 45 8 0 -10 43 0 51 12 3 4 15 -1 27 -12 22 -20 37 -27 28
-12 -3 5 6 15 19 22 22 12 28 11 50 -10 l24 -23 19 23 c15 19 16 28 8 55 -6
19 -15 31 -20 28 -5 -4 -6 5 -2 21 5 20 4 26 -5 20 -7 -4 -10 -3 -6 2 3 5 -6
23 -19 39 -15 18 -22 22 -18 11z m-231 -66 c9 -54 22 -58 30 -10 6 38 20 58
31 47 3 -3 11 -27 18 -54 l13 -48 13 53 c8 29 19 52 27 52 17 0 16 -3 -10 -75
-12 -33 -26 -59 -32 -58 -5 1 -15 21 -22 45 -6 24 -12 45 -13 48 -1 3 -7 -17
-13 -44 -7 -27 -17 -51 -23 -53 -5 -2 -18 23 -28 54 -10 32 -21 64 -23 71 -3
6 2 12 10 12 10 0 18 -14 22 -40z m259 -26 c27 -67 26 -98 -1 -56 -9 12 -24
22 -35 22 -11 0 -28 -10 -38 -22 -27 -34 -33 -17 -11 28 11 22 23 52 26 67 11
44 31 31 59 -39z m-100 0 c3 -8 2 -12 -4 -9 -6 3 -10 10 -10 16 0 14 7 11 14
-7z m-99 -64 c3 -5 1 -10 -4 -10 -6 0 -11 5 -11 10 0 6 2 10 4 10 3 0 8 -4 11
-10z"/>
<path d="M1790 1913 c0 -6 -3 -18 -6 -27 -4 -11 -1 -16 10 -16 9 0 16 6 16 13
0 16 -20 46 -20 30z"/>
<path d="M1864 1967 c-13 -13 8 -67 26 -67 6 0 10 -19 10 -43 0 -29 6 -48 18
-58 17 -15 20 -14 35 5 10 11 17 37 17 57 0 31 12 49 34 49 1 0 1 -20 1 -45
-1 -25 2 -45 7 -45 4 0 8 -6 8 -14 0 -29 103 -23 122 7 5 8 12 6 26 -7 17 -15
23 -15 40 -5 18 11 24 10 41 -5 19 -17 20 -17 32 6 16 29 20 50 8 42 -5 -3 -9
2 -9 10 0 8 4 18 10 21 5 3 8 16 6 28 -3 12 -5 27 -5 33 -1 17 -76 47 -100 39
-12 -3 -21 -11 -21 -16 0 -13 -34 -11 -47 2 -23 23 -133 6 -133 -21 0 -5 -12
-10 -26 -10 -25 0 -25 -2 -23 -57 2 -37 -1 -58 -9 -61 -8 -2 -12 15 -12 58 0
57 -2 62 -20 57 -13 -3 -20 0 -20 9 0 10 14 14 55 14 51 0 73 12 43 22 -28 10
-104 7 -114 -5z m256 -27 c0 -5 -16 -10 -35 -10 -29 0 -35 -4 -35 -21 0 -17 5
-20 32 -17 19 2 33 -2 35 -9 3 -9 -7 -13 -31 -13 -51 0 -49 -28 2 -32 53 -4
46 -22 -10 -23 l-48 -1 0 68 0 68 45 0 c25 0 45 -4 45 -10z m144 -6 c20 -20
20 -33 -1 -56 -15 -17 -15 -19 0 -36 20 -22 21 -32 5 -32 -7 0 -21 14 -30 30
-22 38 -38 38 -38 0 0 -16 -4 -30 -10 -30 -6 0 -10 30 -10 70 l0 70 34 0 c19
0 42 -7 50 -16z m-117 0 c-3 -4 -2 -15 4 -25 11 -21 2 -24 -21 -9 -10 6 -11
10 -2 10 6 0 11 3 11 8 -2 13 1 22 8 22 3 0 3 -3 0 -6z m5 -78 c4 -21 3 -23
-13 -13 -9 6 -15 17 -12 24 8 21 20 15 25 -11z"/>
<path d="M2200 1907 c0 -21 4 -23 25 -19 32 6 30 36 -3 40 -18 3 -22 -1 -22
-21z"/>
<path d="M2394 1959 c-19 -21 -18 -127 1 -153 10 -14 28 -20 54 -20 22 -1 37
2 35 5 -2 4 3 9 10 12 8 3 17 3 19 -1 2 -4 3 -2 1 5 -1 6 3 19 11 30 10 14 13
14 13 3 -2 -37 2 -49 17 -44 9 4 15 1 15 -7 0 -7 10 -3 25 11 14 13 22 26 18
29 -11 8 -10 101 1 101 5 0 -1 11 -13 24 -19 20 -27 23 -41 14 -11 -7 -17 -21
-15 -35 1 -13 -2 -26 -7 -29 -5 -3 -4 -12 3 -20 10 -12 9 -13 -5 -8 -17 7 -23
34 -6 34 5 0 2 13 -8 29 -10 18 -22 27 -31 23 -8 -3 -12 -1 -8 4 10 16 -73 10
-89 -7z m96 -24 c6 -8 9 -23 5 -34 -3 -10 -1 -22 5 -26 5 -3 10 -12 10 -20 0
-24 -26 -41 -65 -40 l-37 1 -2 67 -1 67 36 0 c20 0 42 -7 49 -15z m100 -56 c0
-52 -3 -70 -12 -67 -8 3 -14 29 -16 71 -2 55 0 67 13 67 12 0 15 -14 15 -71z"/>
<path d="M2430 1910 c0 -16 5 -21 23 -18 12 2 22 10 22 18 0 8 -10 16 -22 18
-18 3 -23 -2 -23 -18z"/>
<path d="M2430 1858 c0 -15 6 -19 28 -16 33 4 31 20 -3 30 -20 5 -25 3 -25
-14z"/>
<path d="M2647 1966 c-11 -9 -19 -33 -23 -72 -8 -80 11 -104 85 -104 32 0 50
4 46 10 -7 11 6 13 29 4 9 -3 14 -10 11 -14 -7 -11 66 -3 78 9 11 11 -56 27
-72 16 -7 -4 -11 17 -11 64 0 41 4 71 10 71 6 0 10 -25 10 -55 l0 -55 33 0
c27 0 35 -5 44 -27 l11 -28 1 25 1 24 16 -22 c8 -12 19 -22 24 -22 16 0 41 32
36 46 -3 8 -1 14 4 14 6 0 10 -6 10 -12 1 -37 46 -57 66 -30 10 13 14 13 34
-6 l24 -22 23 21 c12 12 19 27 16 33 -10 16 30 -16 45 -36 14 -19 38 -25 27
-8 -4 7 3 7 20 0 33 -13 44 -13 25 0 -12 8 -11 10 7 10 12 0 27 8 32 18 11 20
12 84 1 77 -4 -2 -7 9 -7 26 0 17 -7 35 -19 44 -23 17 -74 20 -74 3 0 -6 -3
-9 -6 -5 -4 3 -14 -4 -24 -15 l-17 -22 -14 22 c-17 28 -49 29 -56 1 -3 -11 -9
-17 -12 -12 -3 4 -16 16 -28 27 -21 17 -23 17 -40 1 -9 -10 -20 -36 -24 -59
l-6 -41 -2 40 c-1 27 -8 46 -20 57 -18 15 -21 15 -38 0 -15 -14 -18 -28 -15
-69 4 -56 -1 -62 -32 -38 -10 8 -23 12 -27 9 -5 -3 -9 6 -9 19 0 35 -20 87
-33 87 -33 -1 -46 -26 -40 -78 l5 -52 -33 14 c-28 12 -34 20 -35 45 0 17 -9
42 -20 56 -16 22 -21 23 -37 11z m33 -70 c0 -54 0 -55 33 -58 46 -4 35 -21
-15 -21 l-43 0 -3 66 c-2 55 0 67 13 67 12 0 15 -12 15 -54z m270 -16 c0 -40
-4 -70 -10 -70 -6 0 -10 30 -10 70 0 40 4 70 10 70 6 0 10 -30 10 -70z m127
15 l35 -50 -3 49 c-2 32 1 51 9 54 9 3 12 -16 12 -68 0 -84 -8 -86 -57 -16
l-33 48 0 -52 c0 -79 -22 -58 -24 23 -1 82 11 85 61 12z m197 49 c9 -3 16 -12
16 -20 0 -17 -5 -17 -30 -2 -28 18 -54 -1 -58 -40 -2 -23 2 -34 18 -42 12 -6
28 -9 36 -6 19 7 18 36 -1 36 -8 0 -15 5 -15 10 0 6 11 10 24 10 19 0 25 -6
28 -30 4 -24 0 -31 -23 -40 -21 -9 -33 -9 -51 1 -30 16 -38 28 -38 63 0 51 44
79 94 60z"/>
<path d="M3453 1970 c-33 -13 -59 -58 -46 -79 7 -11 8 -23 2 -32 -12 -20 -12
-23 14 -51 19 -23 49 -29 77 -18 3 1 10 1 15 0 6 -1 7 2 3 6 -4 4 -2 12 6 18
18 14 29 63 16 71 -5 3 -10 12 -10 18 0 7 11 -1 24 -18 13 -16 22 -33 19 -38
-8 -13 8 -47 23 -47 8 0 12 -4 9 -10 -11 -19 6 -10 31 15 14 14 20 25 14 25
-6 0 -8 5 -3 13 4 6 6 19 5 27 -2 10 6 16 18 17 11 1 20 -3 20 -8 0 -6 6 -7
13 -3 10 6 10 4 0 -7 -16 -16 -17 -49 -2 -49 5 0 7 -4 4 -10 -3 -5 -1 -11 4
-11 26 -3 30 -4 37 -11 11 -12 46 -10 39 2 -3 6 3 10 15 10 12 0 18 5 15 10
-3 6 1 13 10 16 9 4 12 11 7 18 -4 6 -8 18 -7 26 0 8 -3 17 -7 20 -4 3 -4 11
0 17 15 24 41 -12 43 -61 3 -46 3 -47 33 -44 28 3 31 7 38 47 10 56 28 78 28
33 0 -64 33 -99 86 -91 11 2 26 0 34 -5 8 -5 12 -6 8 -1 -4 4 0 14 10 21 20
16 36 18 27 4 -3 -5 -3 -10 2 -11 4 0 16 -2 25 -4 9 -2 19 3 22 11 3 8 10 14
16 14 6 0 8 -5 4 -11 -5 -8 -1 -8 14 0 17 9 23 7 35 -9 14 -20 14 -20 33 1 21
23 32 155 12 143 -8 -5 -9 -1 -5 10 4 10 3 15 -3 11 -6 -3 -10 -2 -10 4 0 12
-29 3 -51 -16 -14 -11 -19 -11 -40 6 -21 16 -27 17 -43 5 -10 -7 -16 -20 -13
-28 4 -9 2 -18 -4 -22 -6 -3 -8 -13 -5 -21 3 -8 1 -11 -5 -8 -5 4 -9 21 -7 38
2 25 -2 34 -22 44 -26 13 -80 8 -91 -9 -8 -13 -20 -12 -29 1 -10 16 -112 19
-117 4 -3 -10 11 -13 51 -13 31 0 56 -4 56 -10 0 -5 -9 -10 -20 -10 -18 0 -20
-7 -20 -61 0 -44 -3 -59 -12 -56 -9 3 -13 23 -12 61 1 50 -1 56 -19 56 -11 0
-26 8 -33 18 -11 14 -13 14 -14 2 0 -12 -4 -11 -15 4 -16 21 -72 27 -84 8 -8
-13 -27 -11 -57 5 -17 10 -23 8 -34 -7 -12 -17 -46 -17 -35 0 3 5 -7 7 -22 5
-15 -1 -29 -8 -31 -14 -3 -8 -8 -6 -17 5 -14 20 -42 26 -72 14z m817 -91 c0
-39 -4 -69 -10 -69 -5 0 -10 21 -11 48 l-1 47 -14 -32 c-21 -48 -32 -49 -54
-1 l-20 43 0 -52 c0 -29 -4 -53 -10 -53 -6 0 -10 30 -10 70 0 84 17 93 47 25
l20 -46 17 40 c10 22 15 44 12 49 -4 6 2 8 14 5 18 -5 20 -14 20 -74z m-761
62 c7 -5 10 -14 6 -21 -5 -8 -10 -9 -18 -1 -15 15 -47 14 -47 -2 0 -7 15 -19
34 -25 43 -16 51 -37 26 -62 -24 -24 -49 -25 -76 -6 -25 19 -12 31 16 16 12
-6 28 -9 36 -6 25 10 15 32 -18 41 -35 11 -47 37 -28 60 14 17 48 19 69 6z
m87 -23 l17 -33 15 33 c9 17 22 32 29 32 18 0 16 -7 -8 -42 -12 -17 -22 -44
-23 -61 -1 -41 -26 -49 -26 -8 0 17 -11 49 -25 71 -19 31 -22 40 -10 40 8 0
22 -15 31 -32z m202 9 c3 -16 1 -17 -16 -6 -19 12 -52 7 -52 -8 0 -4 18 -16
40 -25 28 -12 40 -23 40 -37 0 -20 -26 -41 -52 -41 -20 0 -54 27 -46 36 4 4
14 1 22 -5 17 -14 59 -5 53 12 -2 6 -19 16 -38 22 -37 13 -48 37 -28 61 17 21
73 14 77 -9z m292 13 c0 -5 -16 -10 -35 -10 -28 0 -35 -4 -35 -20 0 -16 7 -20
30 -20 17 0 30 -5 30 -11 0 -7 -12 -10 -30 -7 -25 4 -30 1 -30 -17 0 -18 5
-20 35 -17 25 3 35 0 35 -10 0 -10 -12 -13 -42 -12 -24 1 -44 4 -45 8 -2 3 -3
33 -3 66 l0 60 45 0 c25 0 45 -4 45 -10z m23 -103 c-3 -5 -9 -3 -14 4 -4 7 -5
17 -2 22 3 5 9 3 14 -4 4 -7 5 -17 2 -22z"/>
<path d="M1399 1915 c-3 -2 -97 -5 -210 -5 -164 -1 -208 -4 -224 -16 -19 -14
-19 -16 -3 -28 10 -7 16 -15 14 -17 -3 -2 89 -4 202 -3 123 1 215 -3 227 -9
18 -9 19 -9 5 8 -14 17 -14 17 6 7 16 -9 22 -7 31 8 9 14 8 22 -8 39 -20 21
-31 25 -40 16z m41 -35 c0 -6 -88 -10 -235 -10 -137 0 -235 4 -235 9 0 6 99
10 235 10 147 0 235 -3 235 -9z"/>
<path d="M4405 1895 c-18 -14 -18 -16 -2 -32 16 -16 82 -29 73 -14 -3 4 19 4
49 0 30 -4 132 -6 226 -4 141 3 174 6 181 18 5 10 3 21 -7 31 -22 22 -490 23
-520 1z m515 -15 c0 -6 -90 -10 -255 -10 -149 0 -255 4 -255 9 0 6 106 10 255
10 165 1 255 -2 255 -9z"/>
</g>
</svg>
